<svg id="Layer_1" data-name="Layer 1" xmlns="http://www.w3.org/2000/svg" viewBox="0 0 90 106"><defs><style>.cls-1{fill:#fff;}.cls-2{fill:#41a5fd;}.cls-3{fill:#f9fafa;}</style></defs><g id="_6894_-_Consultation" data-name="6894 - Consultation"><path class="cls-1" d="M25,90.7H6.34a.92.92,0,0,1-.92-.92V57.18a10.21,10.21,0,0,1,7.15-9.77.93.93,0,1,1,.56,1.77,8.37,8.37,0,0,0-5.85,8V88.84H24V73a.93.93,0,0,1,1.85,0V89.76A.9.9,0,0,1,25,90.7Z"/><path class="cls-1" d="M17.52,50.66a9.32,9.32,0,1,1,9.31-9.31A9.31,9.31,0,0,1,17.52,50.66Zm0-16.76A7.45,7.45,0,1,0,25,41.35,7.47,7.47,0,0,0,17.52,33.9Z"/><path class="cls-1" d="M38,73.94H21.26a1,1,0,0,1-.88-.6L15.73,61.23A.92.92,0,0,1,16.26,60a.93.93,0,0,1,1.21.54l4.44,11.52H38a2.79,2.79,0,1,0,0-5.58H26.86a.89.89,0,0,1-.9-.73l-1.87-8.39a.75.75,0,0,1,0-.2,8.29,8.29,0,0,0-2.45-5.91A9.3,9.3,0,0,0,20,50a.94.94,0,0,1-.32-1.28A1,1,0,0,1,21,48.4a11.22,11.22,0,0,1,2,1.53,10.12,10.12,0,0,1,3,7.13l1.67,7.57H38.06a4.66,4.66,0,0,1,4.66,4.66A4.73,4.73,0,0,1,38,73.94Z"/><path class="cls-1" d="M83.66,90.7H65a.92.92,0,0,1-.92-.92V73A.93.93,0,0,1,66,73V88.86H82.72V57.18a8.35,8.35,0,0,0-5.85-8A.93.93,0,0,1,76.26,48a.94.94,0,0,1,1.17-.61,10.23,10.23,0,0,1,7.15,9.78v32.6A.91.91,0,0,1,83.66,90.7Z"/><path class="cls-1" d="M72.48,50.66a9.32,9.32,0,1,1,9.31-9.31A9.31,9.31,0,0,1,72.48,50.66Zm0-16.76a7.45,7.45,0,1,0,7.45,7.45A7.47,7.47,0,0,0,72.48,33.9Z"/><path class="cls-1" d="M68.74,73.94H52a4.66,4.66,0,1,1,0-9.31H62.41l1.68-7.57a10.07,10.07,0,0,1,3-7.13,9.48,9.48,0,0,1,2-1.53,1,1,0,0,1,1.29.32A.94.94,0,0,1,70,50a8.94,8.94,0,0,0-1.6,1.27A8.29,8.29,0,0,0,66,57.18a.59.59,0,0,1,0,.2l-1.87,8.39a.91.91,0,0,1-.9.73H52a2.79,2.79,0,0,0,0,5.58H68.14l4.44-11.52a.93.93,0,1,1,1.74.67L69.67,73.34A1.08,1.08,0,0,1,68.74,73.94Z"/><path class="cls-2" d="M65,90.7H25a.93.93,0,0,1-.93-.92V73A.93.93,0,0,1,25,72.1H65a.92.92,0,0,1,.92.92V89.78A.88.88,0,0,1,65,90.7ZM25.91,88.84H64.09V73.94H25.91Z"/><path class="cls-2" d="M65,80.47H25a.93.93,0,1,1,0-1.85H65a.93.93,0,0,1,.92.93A.9.9,0,0,1,65,80.47Z"/><path class="cls-3" d="M47.79,43.21h-.12a1,1,0,0,1-.78-.65l-1.48-4.92H30.54a.93.93,0,0,1-.92-.93V16.22a.92.92,0,0,1,.92-.92H59.41a.92.92,0,0,1,.92.92V36.71a.93.93,0,0,1-.92.93H51.84L48.57,42.8A1,1,0,0,1,47.79,43.21Zm-16.3-7.44H46.12a.92.92,0,0,1,.89.65l1.09,3.64,2.48-3.88a.92.92,0,0,1,.77-.44h7.16V17.12h-27Z"/><path class="cls-2" d="M46.38,32.86H42.7a.91.91,0,0,1-.91-.91V29.2H39a.91.91,0,0,1-.91-.91V24.61a.9.9,0,0,1,.91-.9h2.75V21a.9.9,0,0,1,.9-.91h3.68a.91.91,0,0,1,.91.91v2.72H50a.91.91,0,0,1,.91.91v3.68a.91.91,0,0,1-.91.91H47.26v2.75A.88.88,0,0,1,46.38,32.86ZM43.61,31h1.84V28.29a.9.9,0,0,1,.9-.9H49.1V25.55H46.35a.9.9,0,0,1-.9-.91V21.89H43.61v2.75a.91.91,0,0,1-.91.91H40v1.84H42.7a.9.9,0,0,1,.91.9Z"/></g></svg>