<svg width="185" height="70" viewBox="0 0 185 70" fill="none" xmlns="http://www.w3.org/2000/svg">
<path d="M46.9418 0.727272V24H42.6918L32.5668 9.35227H32.3963V24H27.4759V0.727272H31.794L41.8395 15.3636H42.044V0.727272H46.9418ZM58.8707 24.3409C57.0753 24.3409 55.5298 23.9773 54.2344 23.25C52.9465 22.5152 51.9541 21.4773 51.2571 20.1364C50.5601 18.7879 50.2116 17.1932 50.2116 15.3523C50.2116 13.5568 50.5601 11.9811 51.2571 10.625C51.9541 9.26894 52.9351 8.21212 54.2003 7.45454C55.473 6.69697 56.9654 6.31818 58.6776 6.31818C59.8291 6.31818 60.901 6.50379 61.8935 6.875C62.8935 7.23864 63.7647 7.78788 64.5071 8.52273C65.2571 9.25758 65.8404 10.1818 66.2571 11.2955C66.6738 12.4015 66.8821 13.697 66.8821 15.1818V16.5114H52.1435V13.5114H62.3253C62.3253 12.8144 62.1738 12.197 61.8707 11.6591C61.5677 11.1212 61.1473 10.7008 60.6094 10.3977C60.0791 10.0871 59.4616 9.93182 58.7571 9.93182C58.0223 9.93182 57.3707 10.1023 56.8026 10.4432C56.242 10.7765 55.8026 11.2273 55.4844 11.7955C55.1662 12.3561 55.0033 12.9811 54.9957 13.6705V16.5227C54.9957 17.3864 55.1548 18.1326 55.473 18.7614C55.7988 19.3902 56.2571 19.875 56.848 20.2159C57.4389 20.5568 58.1397 20.7273 58.9503 20.7273C59.4882 20.7273 59.9806 20.6515 60.4276 20.5C60.8745 20.3485 61.2571 20.1212 61.5753 19.8182C61.8935 19.5152 62.1359 19.1439 62.3026 18.7045L66.7798 19C66.5526 20.0758 66.0866 21.0152 65.3821 21.8182C64.6851 22.6136 63.7836 23.2348 62.6776 23.6818C61.5791 24.1212 60.3101 24.3409 58.8707 24.3409ZM77.9957 24.3409C76.2003 24.3409 74.6548 23.9773 73.3594 23.25C72.0715 22.5152 71.0791 21.4773 70.3821 20.1364C69.6851 18.7879 69.3366 17.1932 69.3366 15.3523C69.3366 13.5568 69.6851 11.9811 70.3821 10.625C71.0791 9.26894 72.0601 8.21212 73.3253 7.45454C74.598 6.69697 76.0904 6.31818 77.8026 6.31818C78.9541 6.31818 80.026 6.50379 81.0185 6.875C82.0185 7.23864 82.8897 7.78788 83.6321 8.52273C84.3821 9.25758 84.9654 10.1818 85.3821 11.2955C85.7988 12.4015 86.0071 13.697 86.0071 15.1818V16.5114H71.2685V13.5114H81.4503C81.4503 12.8144 81.2988 12.197 80.9957 11.6591C80.6927 11.1212 80.2723 10.7008 79.7344 10.3977C79.2041 10.0871 78.5866 9.93182 77.8821 9.93182C77.1473 9.93182 76.4957 10.1023 75.9276 10.4432C75.367 10.7765 74.9276 11.2273 74.6094 11.7955C74.2912 12.3561 74.1283 12.9811 74.1207 13.6705V16.5227C74.1207 17.3864 74.2798 18.1326 74.598 18.7614C74.9238 19.3902 75.3821 19.875 75.973 20.2159C76.5639 20.5568 77.2647 20.7273 78.0753 20.7273C78.6132 20.7273 79.1056 20.6515 79.5526 20.5C79.9995 20.3485 80.3821 20.1212 80.7003 19.8182C81.0185 19.5152 81.2609 19.1439 81.4276 18.7045L85.9048 19C85.6776 20.0758 85.2116 21.0152 84.5071 21.8182C83.8101 22.6136 82.9086 23.2348 81.8026 23.6818C80.7041 24.1212 79.4351 24.3409 77.9957 24.3409ZM98.4503 6.54545V10.1818H87.9389V6.54545H98.4503ZM90.3253 2.36364H95.1662V18.6364C95.1662 19.0833 95.2344 19.4318 95.3707 19.6818C95.5071 19.9242 95.6965 20.0947 95.9389 20.1932C96.1889 20.2917 96.4768 20.3409 96.8026 20.3409C97.0298 20.3409 97.2571 20.322 97.4844 20.2841C97.7116 20.2386 97.8859 20.2045 98.0071 20.1818L98.7685 23.7841C98.526 23.8598 98.1851 23.947 97.7457 24.0455C97.3063 24.1515 96.7723 24.2159 96.1435 24.2386C94.9768 24.2841 93.9541 24.1288 93.0753 23.7727C92.2041 23.4167 91.526 22.8636 91.0412 22.1136C90.5563 21.3636 90.3177 20.4167 90.3253 19.2727V2.36364ZM109.101 24V0.727272H118.283C120.048 0.727272 121.552 1.06439 122.794 1.73864C124.036 2.4053 124.983 3.33333 125.635 4.52273C126.294 5.70454 126.624 7.06818 126.624 8.61364C126.624 10.1591 126.29 11.5227 125.624 12.7045C124.957 13.8864 123.991 14.8068 122.726 15.4659C121.468 16.125 119.946 16.4545 118.158 16.4545H112.305V12.5114H117.362C118.309 12.5114 119.089 12.3485 119.703 12.0227C120.324 11.6894 120.786 11.2311 121.089 10.6477C121.4 10.0568 121.555 9.37879 121.555 8.61364C121.555 7.84091 121.4 7.16667 121.089 6.59091C120.786 6.00757 120.324 5.55682 119.703 5.23864C119.082 4.91288 118.294 4.75 117.339 4.75H114.021V24H109.101ZM145.251 8.25C145.092 7.69697 144.869 7.20833 144.581 6.78409C144.293 6.35227 143.941 5.98864 143.524 5.69318C143.115 5.39015 142.645 5.15909 142.115 5C141.592 4.84091 141.013 4.76136 140.376 4.76136C139.187 4.76136 138.142 5.05682 137.24 5.64773C136.346 6.23864 135.649 7.09848 135.149 8.22727C134.649 9.34848 134.399 10.7197 134.399 12.3409C134.399 13.9621 134.645 15.3409 135.138 16.4773C135.63 17.6136 136.327 18.4811 137.229 19.0795C138.13 19.6705 139.195 19.9659 140.422 19.9659C141.536 19.9659 142.486 19.7689 143.274 19.375C144.07 18.9735 144.676 18.4091 145.092 17.6818C145.517 16.9545 145.729 16.0947 145.729 15.1023L146.729 15.25H140.729V11.5455H150.467V14.4773C150.467 16.5227 150.036 18.2803 149.172 19.75C148.308 21.2121 147.119 22.3409 145.604 23.1364C144.089 23.9242 142.354 24.3182 140.399 24.3182C138.217 24.3182 136.301 23.8371 134.649 22.875C132.998 21.9053 131.71 20.5303 130.786 18.75C129.869 16.9621 129.411 14.8409 129.411 12.3864C129.411 10.5 129.683 8.81818 130.229 7.34091C130.782 5.85606 131.554 4.59848 132.547 3.56818C133.539 2.53788 134.695 1.75379 136.013 1.21591C137.331 0.678029 138.759 0.40909 140.297 0.40909C141.615 0.40909 142.842 0.602272 143.979 0.988636C145.115 1.36742 146.123 1.9053 147.001 2.60227C147.888 3.29924 148.611 4.12879 149.172 5.09091C149.732 6.04545 150.092 7.09848 150.251 8.25H145.251ZM21.6037 47.875H16.6264C16.5355 47.2311 16.3499 46.6591 16.0696 46.1591C15.7893 45.6515 15.4295 45.2197 14.9901 44.8636C14.5507 44.5076 14.0431 44.2348 13.4673 44.0455C12.8991 43.8561 12.2817 43.7614 11.6151 43.7614C10.4105 43.7614 9.36127 44.0606 8.46733 44.6591C7.57339 45.25 6.88021 46.1136 6.38778 47.25C5.89536 48.3788 5.64915 49.75 5.64915 51.3636C5.64915 53.0227 5.89536 54.4167 6.38778 55.5455C6.88778 56.6742 7.58475 57.5265 8.47869 58.1023C9.37263 58.678 10.4067 58.9659 11.581 58.9659C12.2401 58.9659 12.8499 58.8788 13.4105 58.7045C13.9787 58.5303 14.4825 58.2765 14.9219 57.9432C15.3613 57.6023 15.7249 57.1894 16.0128 56.7045C16.3082 56.2197 16.5128 55.6667 16.6264 55.0455L21.6037 55.0682C21.4749 56.1364 21.1529 57.1667 20.6378 58.1591C20.1302 59.1439 19.4446 60.0265 18.581 60.8068C17.7249 61.5795 16.7022 62.1932 15.5128 62.6477C14.331 63.0947 12.9938 63.3182 11.5014 63.3182C9.42566 63.3182 7.5696 62.8485 5.93324 61.9091C4.30445 60.9697 3.01657 59.6098 2.0696 57.8295C1.13021 56.0492 0.660511 53.8939 0.660511 51.3636C0.660511 48.8258 1.13778 46.6667 2.09233 44.8864C3.04688 43.1061 4.34233 41.75 5.97869 40.8182C7.61506 39.8788 9.45597 39.4091 11.5014 39.4091C12.8499 39.4091 14.0999 39.5985 15.2514 39.9773C16.4105 40.3561 17.437 40.9091 18.331 41.6364C19.2249 42.3561 19.9522 43.2386 20.5128 44.2841C21.081 45.3295 21.4446 46.5265 21.6037 47.875ZM32.9276 63.3409C31.1624 63.3409 29.6359 62.9659 28.348 62.2159C27.0677 61.4583 26.0791 60.4053 25.3821 59.0568C24.6851 57.7008 24.3366 56.1288 24.3366 54.3409C24.3366 52.5379 24.6851 50.9621 25.3821 49.6136C26.0791 48.2576 27.0677 47.2045 28.348 46.4545C29.6359 45.697 31.1624 45.3182 32.9276 45.3182C34.6927 45.3182 36.2154 45.697 37.4957 46.4545C38.7836 47.2045 39.776 48.2576 40.473 49.6136C41.17 50.9621 41.5185 52.5379 41.5185 54.3409C41.5185 56.1288 41.17 57.7008 40.473 59.0568C39.776 60.4053 38.7836 61.4583 37.4957 62.2159C36.2154 62.9659 34.6927 63.3409 32.9276 63.3409ZM32.9503 59.5909C33.7533 59.5909 34.4238 59.3636 34.9616 58.9091C35.4995 58.447 35.9048 57.8182 36.1776 57.0227C36.4579 56.2273 36.598 55.322 36.598 54.3068C36.598 53.2917 36.4579 52.3864 36.1776 51.5909C35.9048 50.7955 35.4995 50.1667 34.9616 49.7045C34.4238 49.2424 33.7533 49.0114 32.9503 49.0114C32.1397 49.0114 31.4579 49.2424 30.9048 49.7045C30.3594 50.1667 29.9465 50.7955 29.6662 51.5909C29.3935 52.3864 29.2571 53.2917 29.2571 54.3068C29.2571 55.322 29.3935 56.2273 29.6662 57.0227C29.9465 57.8182 30.3594 58.447 30.9048 58.9091C31.4579 59.3636 32.1397 59.5909 32.9503 59.5909ZM55.8594 55.5682V45.5455H60.7003V63H56.0526V59.8295H55.8707C55.4768 60.8523 54.8215 61.6742 53.9048 62.2955C52.9957 62.9167 51.8859 63.2273 50.5753 63.2273C49.4086 63.2273 48.3821 62.9621 47.4957 62.4318C46.6094 61.9015 45.9162 61.1477 45.4162 60.1705C44.9238 59.1932 44.6738 58.0227 44.6662 56.6591V45.5455H49.5071V55.7955C49.5147 56.8258 49.7912 57.6402 50.3366 58.2386C50.8821 58.8371 51.6132 59.1364 52.5298 59.1364C53.1132 59.1364 53.6586 59.0038 54.1662 58.7386C54.6738 58.4659 55.0829 58.0644 55.3935 57.5341C55.7116 57.0038 55.867 56.3485 55.8594 55.5682ZM69.4134 52.9091V63H64.5724V45.5455H69.1861V48.625H69.3906C69.777 47.6098 70.4247 46.8068 71.3338 46.2159C72.2429 45.6174 73.3452 45.3182 74.6406 45.3182C75.8527 45.3182 76.9096 45.5833 77.8111 46.1136C78.7126 46.6439 79.4134 47.4015 79.9134 48.3864C80.4134 49.3636 80.6634 50.5303 80.6634 51.8864V63H75.8224V52.75C75.83 51.6818 75.5573 50.8485 75.0043 50.25C74.4512 49.6439 73.6899 49.3409 72.7202 49.3409C72.0687 49.3409 71.4929 49.4811 70.9929 49.7614C70.5005 50.0417 70.1141 50.4508 69.8338 50.9886C69.5611 51.5189 69.4209 52.1591 69.4134 52.9091ZM99.0014 50.5227L94.5696 50.7955C94.4938 50.4167 94.331 50.0758 94.081 49.7727C93.831 49.4621 93.5014 49.2159 93.0923 49.0341C92.6908 48.8447 92.2098 48.75 91.6491 48.75C90.8991 48.75 90.2666 48.9091 89.7514 49.2273C89.2363 49.5379 88.9787 49.9545 88.9787 50.4773C88.9787 50.8939 89.1454 51.2462 89.4787 51.5341C89.812 51.822 90.384 52.053 91.1946 52.2273L94.3537 52.8636C96.0507 53.2121 97.3158 53.7727 98.1491 54.5455C98.9825 55.3182 99.3991 56.3333 99.3991 57.5909C99.3991 58.7348 99.062 59.7386 98.3878 60.6023C97.7211 61.4659 96.8045 62.1402 95.6378 62.625C94.4787 63.1023 93.1416 63.3409 91.6264 63.3409C89.3158 63.3409 87.4749 62.8598 86.1037 61.8977C84.7401 60.928 83.9408 59.6098 83.706 57.9432L88.4673 57.6932C88.6113 58.3977 88.9598 58.9356 89.5128 59.3068C90.0658 59.6705 90.7741 59.8523 91.6378 59.8523C92.4863 59.8523 93.1681 59.6894 93.6832 59.3636C94.206 59.0303 94.4711 58.6023 94.4787 58.0795C94.4711 57.6402 94.2855 57.2803 93.9219 57C93.5582 56.7121 92.9976 56.4924 92.2401 56.3409L89.2173 55.7386C87.5128 55.3977 86.2438 54.8068 85.4105 53.9659C84.5848 53.125 84.1719 52.053 84.1719 50.75C84.1719 49.6288 84.4749 48.6629 85.081 47.8523C85.6946 47.0417 86.5545 46.4167 87.6605 45.9773C88.7741 45.5379 90.0772 45.3182 91.5696 45.3182C93.7741 45.3182 95.509 45.7841 96.7741 46.7159C98.0469 47.6477 98.7893 48.9167 99.0014 50.5227ZM110.402 63.3409C108.607 63.3409 107.061 62.9773 105.766 62.25C104.478 61.5152 103.485 60.4773 102.788 59.1364C102.091 57.7879 101.743 56.1932 101.743 54.3523C101.743 52.5568 102.091 50.9811 102.788 49.625C103.485 48.2689 104.466 47.2121 105.732 46.4545C107.004 45.697 108.497 45.3182 110.209 45.3182C111.36 45.3182 112.432 45.5038 113.425 45.875C114.425 46.2386 115.296 46.7879 116.038 47.5227C116.788 48.2576 117.372 49.1818 117.788 50.2955C118.205 51.4015 118.413 52.697 118.413 54.1818V55.5114H103.675V52.5114H113.857C113.857 51.8144 113.705 51.197 113.402 50.6591C113.099 50.1212 112.679 49.7008 112.141 49.3977C111.61 49.0871 110.993 48.9318 110.288 48.9318C109.554 48.9318 108.902 49.1023 108.334 49.4432C107.773 49.7765 107.334 50.2273 107.016 50.7955C106.697 51.3561 106.535 51.9811 106.527 52.6705V55.5227C106.527 56.3864 106.686 57.1326 107.004 57.7614C107.33 58.3902 107.788 58.875 108.379 59.2159C108.97 59.5568 109.671 59.7273 110.482 59.7273C111.019 59.7273 111.512 59.6515 111.959 59.5C112.406 59.3485 112.788 59.1212 113.107 58.8182C113.425 58.5152 113.667 58.1439 113.834 57.7045L118.311 58C118.084 59.0758 117.618 60.0152 116.913 60.8182C116.216 61.6136 115.315 62.2348 114.209 62.6818C113.11 63.1212 111.841 63.3409 110.402 63.3409ZM126.413 39.7273V63H121.572V39.7273H126.413ZM135.132 39.7273V63H130.291V39.7273H135.132ZM139.01 63V45.5455H143.851V63H139.01ZM141.442 43.2955C140.722 43.2955 140.105 43.0568 139.589 42.5795C139.082 42.0947 138.828 41.5152 138.828 40.8409C138.828 40.1742 139.082 39.6023 139.589 39.125C140.105 38.6402 140.722 38.3977 141.442 38.3977C142.161 38.3977 142.775 38.6402 143.283 39.125C143.798 39.6023 144.055 40.1742 144.055 40.8409C144.055 41.5152 143.798 42.0947 143.283 42.5795C142.775 43.0568 142.161 43.2955 141.442 43.2955ZM152.57 52.9091V63H147.729V45.5455H152.342V48.625H152.547C152.933 47.6098 153.581 46.8068 154.49 46.2159C155.399 45.6174 156.501 45.3182 157.797 45.3182C159.009 45.3182 160.066 45.5833 160.967 46.1136C161.869 46.6439 162.57 47.4015 163.07 48.3864C163.57 49.3636 163.82 50.5303 163.82 51.8864V63H158.979V52.75C158.986 51.6818 158.714 50.8485 158.161 50.25C157.607 49.6439 156.846 49.3409 155.876 49.3409C155.225 49.3409 154.649 49.4811 154.149 49.7614C153.657 50.0417 153.27 50.4508 152.99 50.9886C152.717 51.5189 152.577 52.1591 152.57 52.9091ZM175.499 69.9091C173.93 69.9091 172.586 69.6932 171.464 69.2614C170.351 68.8371 169.464 68.2576 168.805 67.5227C168.146 66.7879 167.718 65.9621 167.521 65.0455L171.999 64.4432C172.135 64.7917 172.351 65.1174 172.646 65.4205C172.942 65.7235 173.332 65.9659 173.817 66.1477C174.309 66.3371 174.908 66.4318 175.612 66.4318C176.665 66.4318 177.533 66.1742 178.214 65.6591C178.904 65.1515 179.249 64.2992 179.249 63.1023V59.9091H179.044C178.832 60.3939 178.514 60.8523 178.089 61.2841C177.665 61.7159 177.12 62.0682 176.453 62.3409C175.786 62.6136 174.991 62.75 174.067 62.75C172.756 62.75 171.563 62.447 170.487 61.8409C169.419 61.2273 168.567 60.2917 167.93 59.0341C167.302 57.7689 166.987 56.1705 166.987 54.2386C166.987 52.2614 167.309 50.6098 167.953 49.2841C168.597 47.9583 169.453 46.9659 170.521 46.3068C171.597 45.6477 172.775 45.3182 174.055 45.3182C175.033 45.3182 175.851 45.4848 176.51 45.8182C177.169 46.1439 177.699 46.553 178.101 47.0455C178.51 47.5303 178.824 48.0076 179.044 48.4773H179.226V45.5455H184.033V63.1705C184.033 64.6553 183.669 65.8977 182.942 66.8977C182.214 67.8977 181.207 68.6477 179.919 69.1477C178.639 69.6553 177.165 69.9091 175.499 69.9091ZM175.601 59.1136C176.381 59.1136 177.04 58.9205 177.578 58.5341C178.124 58.1402 178.54 57.5795 178.828 56.8523C179.124 56.1174 179.271 55.2386 179.271 54.2159C179.271 53.1932 179.127 52.3068 178.839 51.5568C178.552 50.7992 178.135 50.2121 177.589 49.7955C177.044 49.3788 176.381 49.1705 175.601 49.1705C174.805 49.1705 174.135 49.3864 173.589 49.8182C173.044 50.2424 172.631 50.8333 172.351 51.5909C172.071 52.3485 171.93 53.2235 171.93 54.2159C171.93 55.2235 172.071 56.0947 172.351 56.8295C172.639 57.5568 173.052 58.1212 173.589 58.5227C174.135 58.9167 174.805 59.1136 175.601 59.1136Z" fill="#12436A"/>
</svg>
